<svg xmlns="http://www.w3.org/2000/svg" viewBox="0 0 128 128"><defs><style>.cls-1,.cls-2{fill:#5da5f8;}.cls-1{opacity:0.24;}.cls-3{fill:#ffb125;}.cls-4{fill:none;stroke:#27393b;stroke-linecap:round;stroke-linejoin:round;stroke-width:4px;}</style></defs><title>user-male</title><g id="circles"><circle class="cls-1" cx="64" cy="64" r="54"/></g><g id="icons"><path class="cls-2" d="M64,16A48,48,0,0,1,97.79,98.09a100.8,100.8,0,0,0-12.5-8.55c-5.21-2.87-9.72-5.37-9.72-8.51a11.131,11.131,0,0,1,4.23-8.95c.89-.14,1.98-.82,2.91-2.96a12.64,12.64,0,0,0,1.04-4.79c0-1.79-.55-2.69-1.14-3.14,2.82-14.04-1.85-20.72-4.95-23.5a14.992,14.992,0,0,0-14.31-3.02c-6.95.04-12.36,2.45-15.62,7.02-4.11,5.71-4.16,13.74-2.37,19.59a3.715,3.715,0,0,0-1.04,3.05c0,2.59,1.34,7.29,3.95,7.75a11.143,11.143,0,0,1,4.16,8.95c0,3.14-4.51,5.64-9.72,8.51a100.8,100.8,0,0,0-12.5,8.55A48,48,0,0,1,64,16Z"/><path class="cls-3" d="M85.29,89.54a100.8,100.8,0,0,1,12.5,8.55,48,48,0,0,1-67.58,0,100.8,100.8,0,0,1,12.5-8.55c5.21-2.87,9.72-5.37,9.72-8.51a11.143,11.143,0,0,0-4.16-8.95c-2.61-.46-3.95-5.16-3.95-7.75a3.715,3.715,0,0,1,1.04-3.05c-1.79-5.85-1.74-13.88,2.37-19.59,3.26-4.57,8.67-6.98,15.62-7.02a14.992,14.992,0,0,1,14.31,3.02c3.1,2.78,7.77,9.46,4.95,23.5.59.45,1.14,1.35,1.14,3.14a12.64,12.64,0,0,1-1.04,4.79c-.93,2.14-2.02,2.82-2.91,2.96a11.131,11.131,0,0,0-4.23,8.95C75.57,84.17,80.08,86.67,85.29,89.54Z"/><path class="cls-4" d="M36.01,25.01A47.982,47.982,0,0,1,93.32,26"/><path class="cls-4" d="M111.98,65A48.052,48.052,0,0,1,84,107.65"/><path class="cls-4" d="M19.64,45.64A47.963,47.963,0,0,1,30.57,29.57"/><path class="cls-4" d="M16.34,58.34A45.883,45.883,0,0,0,16,64a48.014,48.014,0,0,0,60,46.48"/><path class="cls-4" d="M99.77,32a47.737,47.737,0,0,1,11.39,23"/><path class="cls-4" d="M46.89,43a13.861,13.861,0,0,1,.84-1.31c3.26-4.57,8.67-6.98,15.62-7.02a14.992,14.992,0,0,1,14.31,3.02c3.1,2.78,7.77,9.46,4.95,23.5.59.45,1.14,1.35,1.14,3.14a12.64,12.64,0,0,1-1.04,4.79c-.93,2.14-2.02,2.82-2.91,2.96a11.131,11.131,0,0,0-4.23,8.95c0,3.14,4.51,5.64,9.72,8.51a100.8,100.8,0,0,1,12.5,8.55"/><path class="cls-4" d="M30.21,98.09a105.905,105.905,0,0,1,11.12-7.76"/><path class="cls-4" d="M44.25,53a26.254,26.254,0,0,0,1.11,8.28,3.715,3.715,0,0,0-1.04,3.05c0,2.59,1.34,7.29,3.95,7.75a11.143,11.143,0,0,1,4.16,8.95c0,1.75-1.41,3.31-3.56,4.84"/></g></svg>